<svg height="30px" viewBox="0 -18 512 512" width="30px" xmlns="http://www.w3.org/2000/svg"><path d="m163.328125 304.242188h301.246094l47.425781-272.941407-30.464844-5.289062-42.96875 247.3125h-275.238281l-44.652344-257-59.921875-16.324219h-58.753906v30.917969h54.617188l36.960937 10.070312 43.054687 247.792969-14.113281 81.21875h376.25v-30.917969h-339.496093zm0 0"/><path d="m204.234375 391.644531c-23.015625 0-41.742187 18.722657-41.742187 41.738281 0 23.015626 18.726562 41.742188 41.742187 41.742188s41.742187-18.726562 41.742187-41.742188c0-23.015624-18.726562-41.738281-41.742187-41.738281zm0 52.5625c-5.96875 0-10.820313-4.855469-10.820313-10.824219 0-5.964843 4.851563-10.820312 10.820313-10.820312s10.820313 4.855469 10.820313 10.820312c0 5.96875-4.855469 10.824219-10.820313 10.824219zm0 0"/><path d="m397.660156 391.644531c-23.019531 0-41.742187 18.722657-41.742187 41.738281 0 23.015626 18.722656 41.742188 41.742187 41.742188 23.015625 0 41.738282-18.726562 41.738282-41.742188 0-23.015624-18.722657-41.738281-41.738282-41.738281zm0 52.5625c-5.96875 0-10.824218-4.855469-10.824218-10.824219 0-5.964843 4.855468-10.820312 10.824218-10.820312 5.964844 0 10.820313 4.855469 10.820313 10.820312 0 5.96875-4.855469 10.824219-10.820313 10.824219zm0 0"/><path d="m386.304688 122.457031-21.863282-21.863281-48.035156 48.035156v-133.167968h-30.917969v133.167968l-48.039062-48.035156-21.859375 21.863281 85.355468 85.359375zm0 0"/></svg>